# xmcd
#
# Track frame offsets:
# 150
# 25652
# 45447
# 67590
# 89412
# 104572
# 128150
# 152227
# 169282
# 193087
# 212659
# 233145
#
# Disc length: 3342 seconds
#
#
# Revision: 3
# Processed by: cddbd v1.5.2PL0 Copyright (c) Steve Scherf et al.
# Submitted via: FreeRIP 2.96 
#
DISCID=9b0d0c0c
DTITLE=Steel, Dave [AUS] - Home Is a Hard Thing to Find
DYEAR=2002
DGENRE=Blues
TTITLE0=Have a Round for Me [from 'Home Is a Hard Thing to Find', 2002] [MLVox]
TTITLE1=Postcard from Brooklyn [from 'Home Is a Hard Thing to Find', 2002] [MLVox]
TTITLE2=Home Is a Hard Thing to Find [from 'Home Is a Hard Thing to Find', 2002] [MLVox]
TTITLE3=Weary Blues [from 'Home Is a Hard Thing to Find', 2002] [MLVox]
TTITLE4=Restless [from 'Home Is a Hard Thing to Find', 2002] [MLVox]
TTITLE5=Banjo's Moon [from 'Home Is a Hard Thing to Find', 2002] [MLVox]
TTITLE6=Oh My Country [from 'Home Is a Hard Thing to Find', 2002] [MLVox]
TTITLE7=That's All I Know [from 'Home Is a Hard Thing to Find', 2002] [MLVox]
TTITLE8=Sailin' Shoes [Little Feat cover, 1972, composed by Lowell George] [from 'Home Is a Hard Thing to Find', 2002] [MLVox]
TTITLE9=Trouble [from 'Home Is a Hard Thing to Find', 2002] [MLVox]
TTITLE10=Gherang Gherang [from 'Home Is a Hard Thing to Find', 2002] [Instr]
TTITLE11=A Traveller's Prayer [from 'Home Is a Hard Thing to Find', 2002] [MLVox]
EXTD=Australian artist from Melbourne, Victoria
EXTT0=
EXTT1=
EXTT2=
EXTT3=
EXTT4=
EXTT5=
EXTT6=
EXTT7=
EXTT8=
EXTT9=
EXTT10=
EXTT11=
PLAYORDER=
